<mxfile host="app.diagrams.net" modified="2024-02-11T23:15:25.011Z" agent="Mozilla/5.0 (Android 10; Mobile; rv:122.0) Gecko/122.0 Firefox/122.0" etag="mofUXlLFZGtvkC_9YhVW" version="23.1.2" type="github">
  <diagram name="Page-1" id="Bi3-n__tqUwmh8ah4a7f">
    <mxGraphModel dx="265" dy="918" grid="0" gridSize="10" guides="1" tooltips="1" connect="1" arrows="1" fold="1" page="0" pageScale="1" pageWidth="827" pageHeight="1169" math="0" shadow="0">
      <root>
        <mxCell id="0" />
        <mxCell id="1" parent="0" />
        <mxCell id="enhwsiHIvpim6ZRH38eO-2" value="" style="edgeStyle=none;curved=1;rounded=0;orthogonalLoop=1;jettySize=auto;html=1;fontSize=12;startSize=8;endSize=8;" edge="1" parent="1" source="QteSMnftOqQhiT-JiTiQ-1" target="QteSMnftOqQhiT-JiTiQ-5">
          <mxGeometry relative="1" as="geometry" />
        </mxCell>
        <mxCell id="QteSMnftOqQhiT-JiTiQ-1" value="" style="shape=stencil(lVrLkhM5EPwaXxUqPUtnFv6DCIYdB8MMMQzs8veU1qF2K+VOL7fBZLWlemaW+xTffX/8+O3hFPz3t9eXLw//nD+9PZ7iX6cQzs+PD6/nN/vrFN+f4rvPL68Pf7++/Hj+dPn3t48d2f/6+vKzP+Hfi52Ii7VbBf/r8kl2Nf33wYcL/un8POO9THiJzldi4F2Kk0HwrrRjg+ZamfHFRc/wccbH4Joe49WVNOGTdz4f46tTnfHVBXLh6mR2UE70vgUDUILz5L7Zlfm+RV0lz0+u5Qlfk6vk/Gl4e8NbROQYH8fTBl7tCYHh4+x/Vecp3s/Pb5aC8RgfnM7+b3FkyAE+tRlfaD6k4e0Nn50Q/9fxtD2eF4xUNGAFIMmJokEmHpJ240hKvuHGnQst+iguJDQIpCijupDRILEo2BUXg0zCkIOrigaVeCk3VxYDVgilOAmzQeWdRUaj2hkI8VItNwxYaqgsxVNdInew2g3LHRKJtJrX128g5aZtVPvOrYVcunlsGNYAAhsIggWkmd6hbQ13a3m8JZkBzITSXCZT01oQNKXiXSBealZxs5eyp+ndS36+dDIvkfS+FuT/nJu9XOYmYKOrsjjYnJwvHSzhuUGaR5sopwrVlTlwUmh6m0Ge3WrspZES7Y0R6E7g2WqRjmjg2ZGCE7iDuMxKdOlLNjGUGZQxj7cCGq3wqGm0Ga+UElpXglZcaV5YrSgwGE6QwpgEV4rK8Ma3MjA2V0mtpYKM03KCVE60AFTAM0IYoxNgtHzaWlYDY6bty75eEB8ZQTK+q4gn/pQ68nF3HlIzkjGj7YBMUlh4MvqTPT+N4+7wJP8N7zG+np0nLo1uHPAIX9A/kRG8iPUitAf150OHGF3s8PzQRkeCHPpnPr8fPezQ/wnwheOrB3wm/cfyB+ipH5LnCA8K0M7P/J9XfzI+IZsivuLLHfzcHwIVLP08WI936ithfrL+b3iYw3E0gKN46dLfeHwzPj/wehesR2Hnj3ieMAbIYb1gv80sXlaPiPesH0akWsLzM45xtcs3Xu8wf/344MifAfGMovwxvg41ecWzBcU6Xzzt/z38C574v9ML7FeRLSjioNq7+zJ8G+P5Gi+6EKg4f2UQhCN+UjHfEvGP8Z+C9UIXUB43UFZwTIYWrK9MGatu9OKKV5Kfxj8XvpeZ9lkEX6ULk1WNVcpv++4C+a0ylaGDLuwItzAd0xaVIXRFJ96jAu1NgKmGNnYXO+XDSLoZAGkybUXlnuKuwdJUSJjNAGi3xZnKPR1tdsvryIV9xTuYxqXCvuCRTEUr81LG1mI6nXEt0+kg97q6YYFLmExV6bq0by/nI2mm9MbKAehoE6dM4wrmUvcbO5LH1YFlF1sHqi7J5/kM6Wslj1/BCkLTsjVtVCXqtkXeGbCtaV++ZTRIzEBuGDBhVgoWhBkEEoi+okxowKhUDii1epkzbZxx9puB3lnkhsWARDpu5HtnwPayXc0vR6L8q2Fz7a2KCYRtXu4NGGPzywZeKQWoyJC6k0jcFkbe8YxSoQK/49O1oOvIrAM8ejTTpa/HjUaf2SwCy9ra05WSoALRSiltwNq39sEWvgEVQm10GxtRcdXkEqua0du2KaK0FyVX5iIrQqe/KWTYoNl5yH2XXzKM4zJKuDA849CM8FTcgMRAz6/LhqtQiaaLovNDM9+eaMsONvC1MM6zTBVFw5/AM50DDXtuptN1WUcmznEwVol3z0XNJfpTh3jkK4m63vCQC4mrdY+/4yVaioZvyzaYbTMEm3+i22DDQ+/M9De8/sIFbrPptufPX9C4g7c/rm+DfD4/PV1eJtn/P749Yh9d3jyJ738D);lineShape=1;strokeColor=default;fontSize=16;" parent="1" vertex="1">
          <mxGeometry x="47.57951932048739" y="303.0009346946774" width="142.9961113207616" height="119.10957491259626" as="geometry" />
        </mxCell>
        <mxCell id="QteSMnftOqQhiT-JiTiQ-5" value="" style="shape=stencil(rZfdbtswDIWfxreEROqP1133HgWaLsGypEjT/bz96HlOLbo+xYDduQq/Wjw8IuVB7l72D8+7gcPL9XL+uvtxeLzuB/k0MB9O+93lcLWnQe4HuXs6X3ZfLufX0+P09/PDGDk+fTt/H//Dz4kTijxCHH5NC4FS+bPweQo/Hk6L8JgoaRcfA0nbBrhSlA5gpgjeIIU4dIBECnEbSIW0B1KkwttAbiR9DllI0jZQdNZkBkqikreBZjtuHVBtk2BLajuOHdAaZSCrKpXUAVopKwScStqgrDEECisi4T2peECBTGMSfSFsBZlp/Jk9UJGujVrygIJSGyB9IRY6vE9UqqskFAhrgIgHSgWAeaeuZEJZF6rFF6IhXcus4rLUKOlCLXv7/S3+VtKuDYx+xUBevYERYHZeAQE0Gr2dsCWA7RrUAxGfucweSKjSSm2lUkM5mNXclhq2hq68ZNZAldZ37M1YpZQ9gNrxKGv0AHRrW8+gD8+oFv8KRbre6rRsNKhy1Xf8Nx3+D9B05W88qqv5u8/BVpCZSvEq2UoBzTLnuU63QZrhIE1p7iq3US1UQKlF/ISwlQiaK9tgdteNRAJkjezdZysVeClQ7kViKGogbi48g+0E32IYdpjViI7wMFs4u3DU5QPF5MLRjcEugr0ygQpUplQXLuCERW//AK+R0R9gyx1MjzhfzxbhQBmePbUIB5thP4/NFaAj/uOd/MNwe3i7/j8djsfp62H5u/9csKXpU0PufwM=);lineShape=1;strokeColor=default;fontSize=16;" parent="1" vertex="1">
          <mxGeometry x="33.999498627899726" y="182.9960657708165" width="76.62245519514988" height="85.01678267829686" as="geometry" />
        </mxCell>
      </root>
    </mxGraphModel>
  </diagram>
</mxfile>
